<svg width="58" height="43" viewBox="0 0 58 43" fill="none" xmlns="http://www.w3.org/2000/svg">
<path d="M51.2599 0.187063C50.331 0.277688 49.5267 0.560891 48.745 1.08198C48.3259 1.35386 43.1942 6.4062 34.7208 14.891L21.3536 28.2695L15.463 22.4015C9.09658 16.0578 9.05127 16.0125 7.46533 15.6386C4.96182 15.0496 2.34502 16.0578 0.974319 18.1195C0.759084 18.448 0.441897 19.1277 0.271975 19.6148C0.0114279 20.4191 -0.0225565 20.6343 0.022756 21.7558C0.0793967 23.1832 0.305959 23.8855 1.01963 24.9503C1.28018 25.3355 4.82588 28.9605 9.59502 33.7183C18.397 42.4976 18.2157 42.3277 19.8356 42.7128C20.7646 42.9281 21.9767 42.9281 22.8263 42.7128C24.4802 42.2824 23.472 43.2226 40.7134 26.0152C51.1466 15.5933 56.822 9.86128 57.1052 9.41948C57.7396 8.44527 58.0001 7.52769 58.0001 6.19097C58.0001 4.3898 57.479 3.08706 56.2782 1.89761C54.9528 0.560891 53.2423 -0.0168436 51.2599 0.187063Z" fill="#00B807"/>
</svg>
