<svg width="23" height="19" viewBox="0 0 23 19" fill="none" xmlns="http://www.w3.org/2000/svg">
<path d="M2.90152 0.12842C2.50352 0.372354 2.43933 0.571352 2.43933 1.54067C2.43933 2.29172 2.45859 2.43295 2.56772 2.61911C2.7603 2.92724 3.04916 3.0813 3.46642 3.0813C3.88367 3.0813 4.17254 2.92724 4.36512 2.61911C4.47425 2.43295 4.49351 2.29172 4.49351 1.54067C4.49351 0.789608 4.47425 0.648384 4.36512 0.462224C4.17254 0.154098 3.88367 3.43323e-05 3.46642 3.43323e-05C3.22891 3.43323e-05 3.04275 0.0385501 2.90152 0.12842Z" fill="#7F7878"/>
<path d="M9.06406 0.128409C8.75593 0.320988 8.60187 0.609856 8.60187 1.02711C8.60187 1.44437 8.75593 1.73323 9.06406 1.92581C9.26947 2.04778 9.39786 2.0542 12.7102 2.0542C16.0226 2.0542 16.151 2.04778 16.3564 1.92581C16.6645 1.73323 16.8186 1.44437 16.8186 1.02711C16.8186 0.609856 16.6645 0.320988 16.3564 0.128409C16.151 0.00644207 16.0226 2.28882e-05 12.7102 2.28882e-05C9.39786 2.28882e-05 9.26947 0.00644207 9.06406 0.128409Z" fill="#7F7878"/>
<path d="M2.90152 4.23677C2.78598 4.30739 2.63833 4.45503 2.56772 4.57058C2.44575 4.776 2.43933 4.90438 2.43933 9.57763V14.3793H1.32238C0.237514 14.3793 0.198998 14.3857 0.102709 14.5205C0.0449351 14.5975 0 14.7516 0 14.8607C0 15.0276 0.211837 15.2716 1.62408 16.6774C3.11978 18.1731 3.261 18.295 3.46642 18.295C3.67184 18.295 3.81306 18.1731 5.30876 16.6774C6.72101 15.2716 6.93285 15.0276 6.93285 14.8607C6.93285 14.7516 6.88791 14.5975 6.83014 14.5205C6.73385 14.3857 6.69533 14.3793 5.61047 14.3793H4.49351V9.57763C4.49351 4.90438 4.48709 4.776 4.36512 4.57058C4.17255 4.26245 3.88368 4.10839 3.46642 4.10839C3.22891 4.10839 3.04275 4.1469 2.90152 4.23677Z" fill="#7F7878"/>
<path d="M9.06406 5.26391C8.75593 5.45649 8.60187 5.74535 8.60187 6.16261C8.60187 6.57986 8.75593 6.86873 9.06406 7.06131C9.26947 7.18328 9.39786 7.1897 13.7373 7.1897C18.0768 7.1897 18.2051 7.18328 18.4106 7.06131C18.7187 6.86873 18.8727 6.57986 18.8727 6.16261C18.8727 5.74535 18.7187 5.45649 18.4106 5.26391C18.2051 5.14194 18.0768 5.13552 13.7373 5.13552C9.39786 5.13552 9.26947 5.14194 9.06406 5.26391Z" fill="#7F7878"/>
<path d="M9.06406 10.3993C8.75593 10.5919 8.60187 10.8807 8.60187 11.298C8.60187 11.7152 8.75593 12.0041 9.06406 12.1967C9.26947 12.3187 9.39786 12.3251 14.7644 12.3251C20.1309 12.3251 20.2593 12.3187 20.4647 12.1967C20.7729 12.0041 20.9269 11.7152 20.9269 11.298C20.9269 10.8807 20.7729 10.5919 20.4647 10.3993C20.2593 10.2773 20.1309 10.2709 14.7644 10.2709C9.39786 10.2709 9.26947 10.2773 9.06406 10.3993Z" fill="#7F7878"/>
<path d="M9.06406 15.5348C8.75593 15.7274 8.60187 16.0162 8.60187 16.4335C8.60187 16.8507 8.75593 17.1396 9.06406 17.3322C9.26947 17.4606 9.40428 17.4606 15.7915 17.4606C22.1787 17.4606 22.3135 17.4606 22.5189 17.3322C22.827 17.1396 22.9811 16.8507 22.9811 16.4335C22.9811 16.0162 22.827 15.7274 22.5189 15.5348C22.3135 15.4064 22.1787 15.4064 15.7915 15.4064C9.40428 15.4064 9.26947 15.4064 9.06406 15.5348Z" fill="#7F7878"/>
</svg>
