<svg width="23" height="19" viewBox="0 0 23 19" fill="none" xmlns="http://www.w3.org/2000/svg">
<path d="M2.90176 15.1284C2.50377 15.3724 2.43958 15.5714 2.43958 16.5407C2.43958 17.2917 2.45883 17.4329 2.56796 17.6191C2.76054 17.9272 3.04941 18.0813 3.46666 18.0813C3.88392 18.0813 4.17279 17.9272 4.36537 17.6191C4.47449 17.4329 4.49375 17.2917 4.49375 16.5407C4.49375 15.7896 4.47449 15.6484 4.36537 15.4622C4.17279 15.1541 3.88392 15 3.46666 15C3.22915 15 3.04299 15.0386 2.90176 15.1284Z" fill="#7F7878"/>
<path d="M9.06424 15.1284C8.75611 15.321 8.60205 15.6099 8.60205 16.0271C8.60205 16.4444 8.75611 16.7332 9.06424 16.9258C9.26966 17.0478 9.39804 17.0542 12.7104 17.0542C16.0228 17.0542 16.1511 17.0478 16.3566 16.9258C16.6647 16.7332 16.8188 16.4444 16.8188 16.0271C16.8188 15.6099 16.6647 15.321 16.3566 15.1284C16.1511 15.0064 16.0228 15 12.7104 15C9.39804 15 9.26966 15.0064 9.06424 15.1284Z" fill="#7F7878"/>
<path d="M4.0314 14.1675C4.14695 14.0969 4.29459 13.9493 4.3652 13.8337C4.48717 13.6283 4.49359 13.4999 4.49359 8.82666V4.02503H5.61055C6.69541 4.02503 6.73392 4.01861 6.83021 3.8838C6.88799 3.80677 6.93292 3.65271 6.93292 3.54358C6.93292 3.37668 6.72109 3.13274 5.30884 1.72692C3.81314 0.23122 3.67192 0.109253 3.4665 0.109253C3.26108 0.109253 3.11986 0.23122 1.62416 1.72692C0.211913 3.13274 7.64212e-05 3.37668 7.64212e-05 3.54358C7.64212e-05 3.65271 0.0450115 3.80677 0.102785 3.8838C0.199075 4.01861 0.237591 4.02503 1.32245 4.02503H2.43941V8.82666C2.43941 13.4999 2.44583 13.6283 2.5678 13.8337C2.76038 14.1418 3.04924 14.2959 3.4665 14.2959C3.70401 14.2959 3.89017 14.2574 4.0314 14.1675Z" fill="#7F7878"/>
<path d="M9.06424 10.2639C8.75611 10.4565 8.60205 10.7454 8.60205 11.1626C8.60205 11.5799 8.75611 11.8687 9.06424 12.0613C9.26966 12.1833 9.39804 12.1897 13.7375 12.1897C18.0769 12.1897 18.2053 12.1833 18.4107 12.0613C18.7189 11.8687 18.8729 11.5799 18.8729 11.1626C18.8729 10.7454 18.7189 10.4565 18.4107 10.2639C18.2053 10.1419 18.0769 10.1355 13.7375 10.1355C9.39804 10.1355 9.26966 10.1419 9.06424 10.2639Z" fill="#7F7878"/>
<path d="M9.06424 5.39928C8.75611 5.59186 8.60205 5.88073 8.60205 6.29799C8.60205 6.71524 8.75611 7.00411 9.06424 7.19669C9.26966 7.31865 9.39804 7.32507 14.7646 7.32507C20.1311 7.32507 20.2595 7.31865 20.4649 7.19669C20.773 7.00411 20.9271 6.71524 20.9271 6.29799C20.9271 5.88073 20.773 5.59186 20.4649 5.39928C20.2595 5.27732 20.1311 5.2709 14.7646 5.2709C9.39804 5.2709 9.26966 5.27732 9.06424 5.39928Z" fill="#7F7878"/>
<path d="M9.06424 0.534781C8.75611 0.72736 8.60205 1.01623 8.60205 1.43348C8.60205 1.85074 8.75611 2.13961 9.06424 2.33219C9.26966 2.46057 9.40446 2.46057 15.7917 2.46057C22.1789 2.46057 22.3137 2.46057 22.5191 2.33219C22.8272 2.13961 22.9813 1.85074 22.9813 1.43348C22.9813 1.01623 22.8272 0.72736 22.5191 0.534781C22.3137 0.406395 22.1789 0.406395 15.7917 0.406395C9.40446 0.406395 9.26966 0.406395 9.06424 0.534781Z" fill="#7F7878"/>
</svg>
