<svg width="46" height="58" viewBox="0 0 46 58" fill="none" xmlns="http://www.w3.org/2000/svg">
<path d="M21.414 1.29145C17.2226 5.08637 13.2691 9.91216 11.1621 13.7864C10.8562 14.3641 10.5617 14.8399 10.5051 14.8399C10.4598 14.8399 9.92733 14.4661 9.32694 14.0243L8.23944 13.1973L7.4578 14.0469C4.5578 17.1735 1.86171 22.6223 0.796862 27.4821C0.105847 30.6426 -0.188684 34.9247 0.105847 37.4961C1.31796 48.0766 9.3496 56.3688 19.8168 57.8188C21.4594 58.0567 24.5293 58.0567 26.1945 57.8301C34.8039 56.6407 42.0879 50.5801 44.8406 42.3106C45.7582 39.5465 46.0527 37.3489 45.9621 33.9278C45.8262 28.7282 44.6707 24.1856 42.3258 19.6543C41.091 17.2415 39.2558 14.6133 38.0324 13.4918L37.7379 13.22L36.6617 14.0356C36.0613 14.4774 35.5402 14.8399 35.4949 14.8399C35.4383 14.8399 35.1551 14.3641 34.8379 13.7864C33.7051 11.6907 31.632 8.79067 29.5816 6.40043C27.5086 3.98754 23.3851 4.36783e-05 22.9887 4.36783e-05C22.898 4.36783e-05 22.1957 0.577778 21.414 1.29145ZM24.7898 21.0704C31.2469 21.886 36.4691 26.7797 37.7379 33.2481C37.9758 34.4375 37.9531 37.6547 37.6926 38.8215C37.0355 41.9028 35.7215 44.293 33.4898 46.5133C30.5332 49.4473 27.1234 50.8633 22.9773 50.8633C18.8992 50.8633 15.4328 49.4247 12.5101 46.5133C10.2898 44.3043 8.96444 41.8688 8.30741 38.8215C8.02421 37.5075 8.02421 34.3016 8.31874 32.9649C9.98397 25.2958 17.1547 20.1188 24.7898 21.0704Z" fill="#FF0000"/>
<path d="M21.8671 24.2989C21.7765 24.3216 21.3234 24.4009 20.8589 24.4688C17.098 25.0919 13.6429 27.8899 12.1816 31.5263C9.88197 37.2243 12.3515 43.704 17.8456 46.3888C19.7714 47.329 20.6097 47.5103 22.9999 47.5103C25.3902 47.5103 26.2285 47.329 28.1542 46.3888C31.53 44.7349 33.8636 41.631 34.5093 37.904C34.7472 36.6013 34.6679 34.4376 34.3394 33.1349C33.2746 28.8075 29.8195 25.4657 25.4355 24.5142C24.6992 24.3556 22.2523 24.197 21.8671 24.2989ZM24.6992 32.5118V34.3243H27.8144H30.9296V35.9669V37.6095H26.1152H21.3007V34.1544V30.6993H22.9999H24.6992V32.5118Z" fill="#FF0000"/>
</svg>
