<svg width="53" height="52" viewBox="0 0 53 52" fill="none" xmlns="http://www.w3.org/2000/svg">
<path d="M2.60002 1.59998C0.600015 3.59998 0.300015 24.9 2.20002 26.8C2.90002 27.5 5.80001 28 8.70001 28H14V33.3C14 36.2 14.5 39.1 15.2 39.8C15.9 40.5 18.3 41 20.7 41H25V45.5C25 51.4 26.4 52 39.4 52C53.2 52 53 52.2 53 37.6C53 30.2 52.6 26 51.8 25.2C51.1 24.5 48.7 24 46.3 24H42V19.7C42 17.3 41.5 14.9 40.8 14.2C40.1 13.5 37.2 13 34.3 13H29V7.49998C29 0.499978 28.1 -1.90854e-05 14.6 -1.90854e-05C6.40001 -1.90854e-05 3.80002 0.299978 2.60002 1.59998ZM25 8.99998V13H20.7C15.3 13 14 14.3 14 19.7V24H10H6.00001V14.5V4.99998H15.5H25V8.99998ZM37 20.5V24H32.2C29.6 24 26.9 24.5 26.2 25.2C25.5 25.9 25 28.6 25 31.2V36H21.5H18V26.5V17H27.5H37V20.5ZM48 37.5V47H38.5H29V37.5V28H38.5H48V37.5Z" fill="#4C7EFF"/>
<path d="M8.5002 7C7.2002 9.1 9.3002 10 15.6002 10C21.3002 10 22.0002 9.8 22.0002 8C22.0002 6.2 21.3002 6 15.6002 6C12.0002 6 8.8002 6.4 8.5002 7Z" fill="#4C7EFF"/>
<path d="M21.3998 19.5C20.2998 22.2 22.3998 23.1 28.5998 22.8C33.6998 22.5 34.4998 22.2 34.4998 20.5C34.4998 18.7 33.6998 18.5 28.1998 18.2C23.1998 18 21.8998 18.2 21.3998 19.5Z" fill="#4C7EFF"/>
<path d="M32.3998 30.5C31.3998 33.1 32.9998 34 38.9998 34C43.3998 34 44.8998 33.6 45.3998 32.4C46.3998 29.7 45.0998 29 38.8998 29C34.5998 29 32.7998 29.4 32.3998 30.5Z" fill="#4C7EFF"/>
</svg>
