<svg width="132" height="130" viewBox="0 0 132 130" fill="none" xmlns="http://www.w3.org/2000/svg">
<path d="M59.5787 0.637448C43.5291 1.98081 28.8582 8.78598 18.2527 19.7626C8.91988 29.4313 3.31666 40.5847 1.16021 53.7708C-0.236177 62.3259 0.629936 72.9137 3.40503 81.292C6.95787 92.0212 12.0662 100.435 19.2956 107.452C22.3535 110.404 23.9973 111.747 27.4971 114.081C34.7265 118.906 43.8472 122.547 52.6851 124.138C60.8513 125.623 69.919 125.428 77.9261 123.626C81.7971 122.742 86.7994 121.116 88.9205 120.055C90.2461 119.383 90.2992 119.383 90.9178 120.302C91.2183 120.78 93.0743 122.759 95.054 124.721C97.8821 127.514 98.8719 128.398 99.632 128.734C102.195 129.936 104.952 129.741 107.303 128.221C108.152 127.673 118.139 118.058 126.853 109.397C131.855 104.43 131.873 104.43 131.873 101.089C131.873 98.2254 131.643 97.8012 128.125 94.1777C124.555 90.4834 124.113 90.0946 122.823 89.4406L121.727 88.8749L122.169 87.8674C128.355 74.045 129.363 59.0029 125.05 45.0037C123.742 40.7438 121.267 35.2289 118.863 31.1812C115.682 25.8431 110.697 19.904 105.96 15.8563C95.6196 7.0184 83.1935 1.85708 69.4771 0.690476C67.5328 0.531394 61.2402 0.496042 59.5787 0.637448ZM43.5644 14.566C44.1477 15.7502 44.5543 16.3159 45.5441 17.2527C48.549 20.1162 48.9202 20.5227 49.3797 21.5125C49.804 22.414 49.857 22.7322 49.857 24.4644C49.857 26.285 49.8216 26.4794 49.2914 27.593C48.5843 29.0955 47.4177 30.2621 45.9153 30.9691C44.8017 31.4994 44.6073 31.5347 42.7867 31.5347C40.9307 31.5347 40.7716 31.4994 39.6581 30.9514C38.1026 30.1914 36.7239 28.7066 36.1406 27.1865C35.8047 26.2673 35.7164 25.7194 35.7164 24.3583C35.7164 22.7675 35.7517 22.6084 36.388 21.3181C36.936 20.2222 37.3072 19.745 38.4208 18.7728C40.6302 16.8108 41.2666 16.0684 42.0266 14.5306C42.4155 13.7175 42.7513 13.0635 42.7867 13.0635C42.822 13.0635 43.1755 13.7352 43.5644 14.566ZM84.4308 13.7529C85.2969 14.619 85.1025 15.9623 84.0243 16.528C82.5218 17.3057 80.878 15.6619 81.6557 14.1594C82.0092 13.4701 82.3804 13.258 83.2289 13.2403C83.7415 13.2403 84.0243 13.364 84.4308 13.7529ZM66.3838 16.8638C66.3838 16.9522 65.7829 17.6415 65.0582 18.3663L63.7325 19.6919L62.2831 18.2248L60.816 16.7754L62.23 15.3614L63.6441 13.9473L65.0051 15.3083C65.7652 16.0684 66.3838 16.7578 66.3838 16.8638ZM86.7994 21.8307C90.2815 22.4847 94.1348 24.1109 97.0513 26.1613C99.1724 27.6637 102.619 31.1282 103.892 33.0372C106.649 37.1733 108.099 41.2741 108.381 45.7107L108.488 47.4429L109.672 46.2586C110.308 45.6223 111.051 45.039 111.333 44.9683C112.518 44.6678 113.755 45.64 113.755 46.8773C113.755 47.5666 113.649 47.708 110.715 50.6776C107.674 53.7355 107.038 54.2481 106.331 54.2481C105.606 54.2481 104.952 53.7001 101.948 50.5539C99.2078 47.6904 98.9073 47.3015 98.9073 46.7536C98.9073 45.4986 100.357 44.5618 101.541 45.039C101.806 45.1627 102.46 45.693 102.99 46.2233C103.503 46.7359 103.98 47.1778 104.033 47.1778C104.245 47.1778 103.874 43.2538 103.521 41.875C102.637 38.4459 100.675 35.1406 97.8467 32.3124C94.5414 28.9894 90.9178 26.992 86.4459 26.0375C84.5192 25.6133 80.2947 25.6133 78.1736 26.0375C73.3834 26.9567 69.866 28.9717 65.1642 33.4614C63.5911 34.9638 61.7705 36.6077 61.1165 37.1026C58.8009 38.8348 55.7077 40.2135 52.1725 41.0443C50.6701 41.3978 50.0868 41.4331 43.7588 41.4508C36.4234 41.4685 35.734 41.5392 32.9059 42.476C26.5603 44.6148 21.6818 49.9175 20.4091 56.104C20.0026 58.0307 19.9672 61.0886 20.3208 62.7501C21.0455 66.1616 23.0428 69.3432 25.8356 71.5704C27.3911 72.8077 29.0703 73.6561 31.2974 74.3278C32.7115 74.752 33.1887 74.805 35.5396 74.8227C37.7844 74.8404 38.4208 74.7697 39.7641 74.4338C41.0898 74.0803 43.476 73.1435 43.7412 72.8784C43.7765 72.843 43.2109 72.1713 42.4685 71.4113C41.2312 70.1563 41.1075 69.9619 41.1075 69.3079C41.1075 68.0352 42.3801 67.0807 43.4937 67.5049C44.1124 67.7347 49.0439 72.4718 49.4504 73.2319C49.9984 74.2394 49.6979 74.752 46.9935 77.315C44.0593 80.1078 43.6705 80.4082 42.9458 80.4082C42.1503 80.4082 41.4256 79.7542 41.3903 79.0119C41.3726 78.4639 41.3373 78.4462 40.8423 78.5523C36.6709 79.4538 32.7822 79.3477 29.4415 78.2518C22.9721 76.1307 18.1113 70.9517 16.3614 64.3233C15.7604 62.0254 15.672 58.1191 16.1846 55.6622C17.3689 49.9175 21.0101 44.5087 25.871 41.2741C27.9567 39.8777 29.6359 39.0823 32.0044 38.3576C35.5926 37.2617 36.3527 37.191 42.7513 37.244C49.203 37.297 50.7408 37.1379 53.5159 36.2188C56.6975 35.1582 58.4828 33.974 62.071 30.5625C63.5204 29.1838 65.5177 27.4339 66.5076 26.6915C70.2548 23.8634 74.9919 22.0075 79.6407 21.5479C81.532 21.3535 84.9611 21.4949 86.7994 21.8307ZM25.0402 30.3681C26.1538 31.4994 25.3937 33.3907 23.8206 33.3907C22.5302 33.3907 21.6641 31.9413 22.2651 30.7747C22.6186 30.0853 22.9898 29.8732 23.8382 29.8555C24.3508 29.8555 24.6336 29.9792 25.0402 30.3681ZM86.4459 31.0928C88.0367 31.4994 90.2815 32.5246 91.8016 33.5144C94.0818 35.0345 96.5741 37.898 97.5816 40.1958C98.0942 41.3448 98.0942 41.3624 97.7584 41.2387C97.5993 41.168 97.4932 41.2387 97.4932 41.3624C97.4932 41.5569 97.4402 41.5569 97.3165 41.3448C97.1574 41.115 97.1397 41.115 97.122 41.3448C97.1043 41.4862 97.1043 41.6629 97.122 41.7336C97.122 41.8043 96.9983 41.8043 96.8215 41.7513C96.6625 41.6983 96.5741 41.716 96.6448 41.7867C96.8569 42.0164 95.1423 42.9356 94.8949 42.7235C94.7535 42.6174 94.6651 42.6881 94.5767 42.9356C94.4707 43.2714 94.4 43.2184 94.0111 42.4583C91.5718 37.8273 87.3473 35.1582 82.4511 35.1582C78.7215 35.1582 75.699 36.4663 72.9592 39.259L72.0224 40.2135L70.9795 39.7009C70.2902 39.3474 69.5655 39.153 68.7878 39.0999C68.1514 39.0469 67.6211 38.9409 67.6211 38.8702C67.6211 38.6404 68.9999 36.9081 70.0781 35.8123C72.6941 33.0902 76.0878 31.358 79.9235 30.7393C81.5143 30.4918 84.8197 30.6686 86.4459 31.0928ZM89.5921 42.476C90.4229 42.8295 90.8118 43.3421 90.9178 44.2789L91.0062 45.092L87.6832 48.3444C85.8626 50.1296 84.3071 51.5967 84.2364 51.5967C84.1657 51.5967 83.5293 50.9604 82.8223 50.165L81.532 48.7332L84.4308 45.8167C88.1251 42.0872 88.3548 41.9457 89.5921 42.476ZM69.1059 43.2714C71.4568 44.5264 73.5249 46.2233 76.6535 49.511C78.3503 51.2786 80.9664 54.0183 82.4688 55.5738C88.0897 61.3538 89.7159 63.0506 91.6779 65.1717C93.799 67.4519 94.2585 67.717 95.2307 67.3458C95.867 67.1161 96.3089 66.2323 96.1675 65.5252C96.0968 65.2248 95.4605 64.3233 94.7004 63.4572C93.9581 62.6264 93.251 61.7957 93.1096 61.6189C92.8622 61.3361 92.9682 61.3184 95.1777 61.3184C97.5109 61.3184 97.5286 61.3184 97.9881 61.8133C98.5538 62.3966 101.824 65.9318 102.548 66.7625C102.884 67.1514 103.273 67.3812 103.715 67.4519C104.281 67.5403 104.44 67.4696 104.917 67.01C105.553 66.3737 105.624 65.5783 105.111 64.7652C104.935 64.4647 104.228 63.5986 103.538 62.8208L102.283 61.4068L104.157 61.3538C105.324 61.3184 106.243 61.3891 106.543 61.5128C107.197 61.778 110.078 64.8182 110.944 66.1439C111.333 66.7449 111.652 67.4873 111.705 67.9115C111.758 68.318 111.846 73.3203 111.881 79.0119C111.934 86.6124 112.005 89.4936 112.164 89.7764C112.288 89.9885 112.641 90.5365 112.977 90.9607C113.313 91.4026 113.578 91.8798 113.578 92.0566C113.578 92.2333 112.995 92.9227 112.306 93.5767C111.598 94.2484 109.937 95.8392 108.629 97.1119C107.321 98.3845 104.051 101.531 101.382 104.094C98.7128 106.657 96.1675 109.096 95.7256 109.52L94.9479 110.28L94.4176 109.432C93.0036 107.205 92.6324 106.71 91.8016 105.879C90.4936 104.589 89.0442 103.705 86.5342 102.68C85.3323 102.167 84.0419 101.548 83.6884 101.283C82.4511 100.382 72.2345 89.2108 71.775 88.274C71.5275 87.7614 71.1033 86.2236 70.8028 84.6504C70.1311 81.2744 69.866 80.4259 69.0175 79.0649C67.4621 76.6256 67.303 75.5474 68.3459 74.6813C69.1236 74.0273 70.2902 74.045 71.3507 74.7166C72.3583 75.3706 75.2041 78.3225 75.805 79.3654C76.0702 79.8073 76.4414 80.8855 76.6181 81.7516C77.0777 83.8373 77.2014 84.1555 78.0499 85.0747C79.0927 86.1882 80.2593 86.6655 81.8501 86.5594C84.5545 86.3827 86.5166 84.5444 87.5241 81.2037C87.8069 80.2845 87.8599 79.4714 87.8599 75.2823C87.8599 70.8633 87.8246 70.3684 87.5241 69.8028C87.1706 69.1488 85.9156 67.6817 82.7339 64.2349C78.4387 59.6039 68.8761 49.2989 67.4797 47.8141C65.7298 45.9581 65.3233 45.3572 65.3233 44.5971C65.3233 43.9785 65.8712 43.1654 66.4545 42.9356C67.1793 42.6351 68.0984 42.7588 69.1059 43.2714ZM60.816 43.9254C60.869 44.4557 61.0811 45.4102 61.2402 46.0289C61.5584 47.1601 61.5584 47.1601 61.1872 47.4959C59.7378 48.7509 56.9273 49.9882 54.2229 50.5715C52.6498 50.9074 51.8897 50.9427 45.2613 50.9604C38.191 50.9781 37.9789 50.9957 36.5471 51.4023C32.0928 52.6749 29.1233 56.7581 29.5298 61.0356C29.5829 61.6896 29.6889 62.3613 29.7419 62.538C29.8127 62.7855 29.795 62.7855 29.5829 62.5557C29.2647 62.1845 28.2218 62.1315 28.0804 62.4673C27.992 62.7148 27.9567 62.7148 27.6916 62.485C27.4971 62.3082 27.3204 62.2729 27.1436 62.379C26.7901 62.6087 25.7295 62.5911 25.7295 62.3613C25.7295 62.2729 25.6588 62.2199 25.5705 62.2906C25.3407 62.432 25.1286 60.2402 25.2523 58.9322C25.5881 55.3086 27.3911 51.9856 30.2015 49.7408C33.6306 47.001 36.6532 46.3647 45.4204 46.5238C52.4377 46.6475 55.0713 46.1526 58.7302 43.9961C59.6847 43.4305 60.5155 42.9709 60.5685 42.9533C60.6392 42.9356 60.7453 43.3775 60.816 43.9254ZM72.7295 59.4624C73.4188 60.1872 73.9844 60.8588 73.9844 60.9472C73.9844 61.124 64.9521 69.9795 64.3158 70.4214C64.1037 70.5628 63.5734 70.7396 63.1315 70.7926C61.7174 70.9871 61.0104 70.5805 58.2 67.9115C55.5486 65.3662 54.2583 64.4117 52.6144 63.7577C51.6422 63.3688 51.4478 63.3511 43.1402 63.2627C33.9488 63.1744 34.1079 63.192 33.5776 62.1668C32.9766 61.0179 33.3478 59.8336 34.4791 59.3034C35.3452 58.8968 50.1575 58.8791 52.2079 59.3034C54.983 59.8513 57.2101 61.23 60.5155 64.4117L62.6012 66.409L63.9092 65.154C64.6339 64.447 66.5606 62.5911 68.1868 61.0002C69.7953 59.4271 71.2093 58.1368 71.2977 58.1368C71.3861 58.1368 72.0401 58.7377 72.7295 59.4624ZM77.1484 64.447C78.5625 65.8257 82.6456 70.174 82.6456 70.2977C82.6456 70.3684 82.0092 70.4038 81.2315 70.3684L79.8174 70.2977V74.3455V78.3755L79.0751 77.1382C77.7847 74.9818 76.5651 73.5147 75.2394 72.5956L74.8329 72.3127L75.2217 69.5023C75.4162 67.9645 75.6813 66.0555 75.7874 65.2424C75.9995 63.5632 76.1409 63.4748 77.1484 64.447ZM66.6313 84.8272C66.8788 85.9054 67.0909 86.8953 67.0909 87.0367C67.0909 87.2841 64.2981 87.3018 43.1048 87.2664C16.7856 87.2134 18.4825 87.2841 17.7754 86.1529C17.0684 85.0216 17.4926 83.6783 18.7299 83.1303C19.1718 82.9359 23.5024 82.9005 42.7336 82.8829H66.1717L66.6313 84.8272ZM59.5433 92.304C60.215 92.6929 60.4978 93.0288 60.8336 93.7181C61.2579 94.6372 61.2579 94.6549 61.2579 100.965C61.2579 106.268 61.2225 107.399 60.9927 107.947C60.6215 108.813 60.0736 109.379 59.2252 109.768C58.5535 110.086 57.7404 110.104 44.024 110.104H29.5122L28.7344 109.697C27.8683 109.273 27.232 108.46 26.9669 107.417C26.8431 106.993 26.7901 104.447 26.8254 100.506C26.8785 94.3898 26.8785 94.2661 27.285 93.5767C27.7269 92.8166 28.5577 92.145 29.3708 91.8975C29.6536 91.8091 36.3704 91.7561 44.2891 91.7738L58.6949 91.8091L59.5433 92.304ZM70.0604 92.7283C70.5907 93.2939 71.174 93.9656 71.3684 94.2307L71.7043 94.7256H70.9088C69.5655 94.7256 68.9468 95.7862 69.6715 96.829C69.9544 97.2179 70.0427 97.2356 71.9871 97.1649L74.0198 97.1119L76.8656 100.258C80.4538 104.218 81.7441 105.225 84.6783 106.409C86.2868 107.046 86.9938 107.452 86.4812 107.452C86.0923 107.452 86.0923 107.806 86.4989 107.823C86.658 107.841 86.8701 107.841 86.9408 107.823C87.0292 107.806 87.0468 107.876 86.9761 107.982C86.9231 108.071 86.9584 108.159 87.0822 108.159C87.2059 108.159 87.2413 108.212 87.1882 108.265C87.1175 108.336 86.9408 108.283 86.7994 108.159C86.5873 107.982 86.4812 107.965 86.3044 108.142C86.1454 108.318 86.163 108.336 86.4105 108.248C86.5873 108.177 86.711 108.212 86.711 108.318C86.711 108.424 86.6403 108.513 86.5342 108.513C86.4459 108.513 86.3575 108.601 86.3575 108.707C86.3575 108.813 86.4635 108.866 86.6049 108.813C86.8701 108.707 87.0645 109.025 87.0645 109.573C87.0645 109.785 86.8877 109.927 86.5166 109.998C86.2161 110.051 81.8855 110.104 76.9009 110.104C68.4342 110.104 67.7802 110.086 67.0555 109.768C66.1717 109.379 65.8005 109.008 65.4117 108.106C65.1819 107.576 65.1465 106.409 65.1465 100.877C65.1465 94.6903 65.1642 94.2661 65.5001 93.5944C66.0127 92.5162 67.2676 91.7738 68.5933 91.7384C68.9999 91.7207 69.3003 91.9329 70.0604 92.7283ZM121.179 92.6929C121.886 93.0641 122.239 93.6297 122.239 94.4251C122.239 95.2736 122.84 94.6549 112.252 104.73C107.781 108.99 102.425 114.081 100.374 116.06L96.6094 119.648H95.761C95.054 119.648 94.8242 119.56 94.4176 119.154C93.7813 118.482 93.6399 117.527 94.0641 116.856C94.5767 116.06 118.669 93.1171 119.482 92.6576C119.994 92.3571 120.56 92.3747 121.179 92.6929Z" fill="white"/>
<path d="M41.5317 21.707C39.8172 22.4848 39.2339 24.4821 40.2237 26.1083C41.514 28.2117 44.7133 27.8405 45.7916 25.4366C46.0744 24.8003 46.0921 24.6058 45.9153 23.8988C45.6148 22.7852 45.1376 22.1843 44.2361 21.7424C43.2993 21.2828 42.4862 21.2828 41.5317 21.707Z" fill="white"/>
<path d="M36.0698 97.1119C35.787 97.2356 34.532 98.3315 33.2771 99.5335C31.1736 101.566 31.0322 101.743 31.0322 102.379C31.0322 103.245 31.6686 103.917 32.464 103.917C32.9589 103.917 33.2771 103.67 34.7441 102.149C35.6633 101.177 36.5294 100.382 36.6708 100.382C36.8122 100.382 37.6783 101.124 38.6151 102.043C39.552 102.945 40.4888 103.793 40.7186 103.899C41.514 104.324 42.1503 103.97 44.1653 102.008L46.0743 100.152L47.8772 101.937C49.8569 103.899 50.3872 104.2 51.2533 103.917C51.5715 103.811 52.8441 102.75 54.2405 101.389C56.3793 99.3214 56.6621 98.9855 56.6621 98.4729C56.6621 97.6952 55.9904 97.0235 55.2304 97.0235C54.7531 97.0235 54.3819 97.3063 52.7558 98.9148L50.8291 100.806L48.9378 98.9325C46.1804 96.2281 46.0213 96.2281 43.2285 99.0386C42.3094 99.9754 41.4609 100.735 41.3549 100.735C41.2488 100.735 40.5771 100.099 39.8701 99.3214C37.8197 97.0765 37.0773 96.6523 36.0698 97.1119Z" fill="white"/>
<path d="M69.7599 99.4805C69.5478 99.6926 69.3887 100.081 69.3887 100.382C69.3887 100.682 69.5478 101.071 69.7599 101.283C70.0957 101.619 70.2901 101.655 71.7042 101.584C73.4718 101.531 73.8606 101.301 73.8606 100.382C73.8606 99.4628 73.4718 99.233 71.7042 99.18C70.2901 99.1093 70.0957 99.1446 69.7599 99.4805Z" fill="white"/>
<path d="M70.1842 103.687C69.4241 103.882 69.1413 104.907 69.6716 105.649C69.919 106.003 70.0781 106.038 71.5805 106.038C72.9416 106.038 73.2774 105.985 73.5072 105.72C74.0728 105.101 73.9668 104.182 73.2774 103.829C72.7825 103.581 70.9796 103.493 70.1842 103.687Z" fill="white"/>
</svg>
